<?xml version="1.0" standalone="no"?>
<!DOCTYPE svg PUBLIC "-//W3C//DTD SVG 20010904//EN"
 "http://www.w3.org/TR/2001/REC-SVG-20010904/DTD/svg10.dtd">
<svg version="1.0" xmlns="http://www.w3.org/2000/svg"
 width="2048.000000pt" height="2048.000000pt" viewBox="0 0 2048.000000 2048.000000"
 preserveAspectRatio="xMidYMid meet">
<metadata>
Created by potrace 1.14, written by Peter Selinger 2001-2017
</metadata>
<g transform="translate(0.000000,2048.000000) scale(0.100000,-0.100000)"
fill="#000000" stroke="none">
<path d="M3127 20474 c-1 -1 -47 -5 -102 -8 -55 -4 -113 -9 -130 -12 -16 -3
-48 -6 -71 -8 -22 -1 -45 -5 -50 -8 -5 -2 -24 -5 -43 -7 -19 -1 -40 -6 -46
-11 -7 -5 -14 -7 -18 -4 -3 3 -30 1 -61 -6 -31 -6 -58 -11 -61 -11 -2 0 -53
-14 -112 -31 -60 -16 -116 -31 -125 -31 -10 -1 -18 -5 -18 -9 0 -4 -3 -7 -7
-6 -21 4 -266 -88 -383 -144 -36 -18 -67 -32 -70 -33 -7 -1 -130 -66 -152 -80
-26 -16 -168 -98 -194 -113 -13 -7 -24 -18 -24 -24 0 -6 -3 -9 -6 -5 -6 6
-156 -101 -162 -115 -2 -5 -9 -8 -15 -8 -7 0 -18 -9 -25 -20 -7 -11 -16 -20
-21 -20 -10 0 -41 -25 -92 -72 -16 -16 -32 -28 -34 -28 -7 0 -232 -226 -285
-286 -65 -74 -79 -91 -143 -174 -31 -41 -61 -79 -65 -85 -4 -5 -18 -26 -32
-45 -13 -19 -28 -38 -33 -41 -5 -3 -8 -8 -6 -10 1 -2 -19 -37 -44 -77 -26 -40
-47 -74 -47 -77 0 -3 -11 -23 -25 -45 -29 -46 -138 -259 -141 -276 -1 -6 -13
-35 -27 -64 -14 -30 -24 -57 -21 -62 3 -4 0 -8 -5 -8 -6 0 -11 -8 -11 -18 0
-10 -4 -22 -8 -27 -5 -6 -23 -57 -41 -115 -18 -58 -36 -112 -39 -120 -7 -19
-3 -6 -36 -140 -30 -124 -30 -123 -41 -190 -4 -25 -9 -54 -11 -65 -2 -11 -7
-40 -10 -65 -3 -25 -7 -56 -9 -70 -2 -14 -7 -65 -11 -115 -11 -114 -11 -14348
-1 -14470 4 -49 10 -110 13 -135 3 -25 7 -58 9 -75 2 -16 4 -30 5 -30 2 0 4
-18 5 -40 2 -22 4 -40 5 -40 2 0 9 -26 15 -65 12 -69 66 -283 90 -358 3 -7 5
-16 6 -20 3 -10 58 -164 66 -182 3 -8 7 -17 8 -20 1 -3 8 -18 15 -35 7 -16 14
-32 14 -35 1 -3 5 -11 9 -18 5 -6 5 -12 0 -12 -4 0 -3 -4 2 -8 6 -4 21 -32 35
-62 14 -30 28 -58 33 -61 4 -3 9 -16 10 -27 1 -12 4 -22 7 -22 4 0 14 -17 24
-37 10 -21 48 -87 84 -148 37 -60 66 -113 64 -117 -1 -5 2 -8 7 -8 5 0 18 -15
30 -33 42 -66 63 -94 86 -121 6 -6 22 -27 35 -46 13 -19 29 -40 35 -46 5 -6
28 -32 50 -59 22 -26 55 -63 72 -81 18 -19 31 -34 29 -34 -2 0 40 -42 92 -92
129 -125 142 -137 192 -178 24 -19 55 -45 69 -57 14 -13 32 -27 38 -33 40 -33
357 -240 369 -240 8 0 14 -4 14 -9 0 -5 8 -11 18 -15 9 -3 42 -20 72 -37 30
-17 60 -32 65 -33 9 -2 68 -30 198 -93 27 -12 54 -23 61 -23 7 0 31 -9 54 -20
22 -11 47 -20 55 -20 7 0 18 -5 25 -12 7 -7 12 -9 12 -5 0 4 16 0 36 -8 20 -8
40 -13 44 -10 5 3 11 1 14 -4 5 -8 63 -25 79 -22 4 0 7 -3 7 -8 0 -5 7 -8 17
-7 9 2 33 -3 54 -10 21 -8 53 -16 71 -19 18 -3 41 -8 50 -11 23 -7 56 -13 108
-20 25 -3 48 -8 51 -10 3 -2 32 -6 64 -10 32 -3 67 -7 77 -9 10 -2 60 -7 111
-12 116 -9 14363 -10 14472 -1 83 8 142 14 210 24 22 3 56 8 75 10 53 6 64 9
78 18 7 4 15 6 18 3 3 -2 64 11 137 30 73 18 143 36 156 39 13 3 32 9 43 15
10 5 18 8 18 5 0 -4 136 42 185 63 11 5 40 17 65 27 71 28 251 112 290 135 19
11 47 25 63 30 15 6 27 15 27 21 0 5 5 6 10 3 6 -3 10 -3 10 2 0 4 18 17 40
27 22 11 40 22 40 25 0 4 17 15 37 26 21 11 43 23 48 28 62 46 141 104 154
112 27 17 116 90 119 98 2 4 8 7 12 7 19 0 291 264 377 366 23 27 54 63 68 79
15 17 38 47 52 67 14 21 30 38 34 38 5 0 9 5 9 11 0 6 13 28 30 49 17 21 30
42 30 48 0 6 4 12 8 14 8 3 72 95 72 104 0 3 13 24 29 47 15 23 45 74 65 112
21 39 42 77 47 85 14 22 85 182 93 208 4 12 12 22 18 22 6 0 9 3 5 6 -3 3 6
36 20 72 37 96 81 222 78 222 -2 0 4 21 12 48 18 57 41 142 47 174 9 46 25
124 31 148 3 14 8 45 11 70 2 25 7 56 10 70 2 14 7 43 9 65 3 22 7 67 11 100
4 33 7 1676 8 3651 2 3659 1 3716 -33 3789 -5 11 -12 33 -16 50 -6 26 -41 101
-86 185 -33 60 -140 180 -230 256 -26 22 -124 80 -174 103 -16 7 -42 20 -57
28 -16 8 -28 12 -28 9 0 -3 -19 2 -42 10 -59 21 -227 42 -302 38 -81 -5 -170
-20 -236 -41 -30 -9 -57 -17 -60 -18 -31 -7 -191 -96 -216 -120 -6 -5 -26 -21
-44 -35 -143 -108 -286 -346 -315 -525 -2 -11 -4 -20 -5 -20 -9 0 -11 -463
-15 -3190 -2 -1727 -5 -3159 -8 -3181 -3 -23 -7 -55 -11 -70 -3 -16 -8 -51
-11 -79 -6 -51 -59 -290 -65 -290 -1 0 -3 -7 -5 -15 -8 -40 -69 -205 -77 -208
-4 -2 -6 -7 -4 -11 14 -22 -220 -433 -300 -528 -11 -12 -29 -35 -41 -51 -89
-115 -275 -291 -438 -415 -106 -80 -401 -247 -438 -247 -7 0 -17 -4 -23 -9
-12 -12 -215 -87 -259 -95 -11 -2 -33 -9 -50 -16 -16 -6 -31 -11 -33 -10 -1 1
-26 -4 -55 -9 -84 -18 -100 -21 -137 -27 -70 -12 -86 -14 -170 -21 -115 -9
-12370 -9 -12490 1 -52 4 -104 8 -115 10 -82 12 -175 29 -202 37 -17 6 -44 12
-60 15 -42 9 -58 12 -60 14 -2 2 -7 4 -13 5 -5 1 -11 3 -12 5 -2 1 -10 3 -18
5 -8 2 -24 6 -35 9 -63 16 -159 54 -302 122 -51 25 -96 45 -100 46 -5 1 -12 6
-18 10 -5 5 -50 33 -100 64 -82 51 -262 182 -304 222 -10 10 -44 42 -77 73
-77 73 -214 223 -214 234 0 3 -8 13 -18 23 -9 10 -24 29 -32 42 -8 12 -19 28
-25 34 -33 37 -119 181 -182 304 -40 78 -73 146 -74 150 -2 8 1 -1 -44 125
-19 53 -37 112 -40 129 -4 18 -9 35 -13 38 -4 3 -7 10 -7 15 0 6 -11 62 -23
125 -27 140 -31 166 -38 255 -8 87 -8 12427 -1 12510 3 33 8 74 11 90 3 17 8
50 11 75 3 25 7 52 10 60 4 13 11 48 21 105 3 17 15 64 29 115 11 39 25 81 50
145 15 39 28 75 29 80 1 6 17 42 35 80 18 39 40 84 47 100 29 61 133 235 161
270 5 6 22 28 38 50 17 22 35 45 40 52 6 6 21 26 35 44 47 62 184 204 275 284
17 14 75 60 130 101 55 40 105 77 110 82 9 6 53 33 130 78 56 33 190 99 197
96 5 -1 8 2 8 7 0 8 12 13 55 26 6 2 24 9 40 16 17 7 33 13 37 13 3 1 10 4 14
9 4 4 13 7 20 7 7 0 25 5 41 12 15 6 57 20 93 30 62 18 74 21 128 33 12 3 32
7 45 10 12 3 49 10 82 16 33 5 71 12 85 15 14 2 63 7 110 11 84 7 13250 10
13363 3 32 -2 60 -7 63 -12 3 -5 9 -6 14 -3 7 5 36 0 123 -21 9 -2 25 -6 35
-8 9 -2 37 -11 62 -20 25 -9 52 -16 61 -16 9 0 22 -7 29 -15 7 -9 15 -13 18
-10 5 4 181 -83 192 -96 3 -3 22 -15 43 -28 21 -13 43 -28 50 -34 6 -7 30 -25
52 -42 44 -32 177 -164 213 -211 52 -68 107 -154 146 -229 43 -81 78 -165 73
-176 -1 -3 3 -12 9 -20 14 -17 55 -178 59 -230 1 -20 5 -41 8 -46 7 -11 9 -82
10 -348 1 -255 -3 -288 -53 -447 -24 -75 -119 -268 -132 -268 -5 0 -7 -4 -4
-9 4 -5 2 -11 -2 -13 -4 -1 -23 -24 -41 -50 -17 -27 -37 -48 -43 -48 -6 0 -9
-2 -6 -6 5 -5 -49 -59 -136 -135 -22 -19 -47 -41 -56 -50 -9 -8 -38 -32 -65
-52 -26 -20 -44 -37 -39 -37 5 -1 -1 -6 -12 -13 -12 -7 -52 -38 -88 -71 -37
-32 -79 -68 -94 -80 -15 -11 -34 -28 -43 -36 -8 -8 -29 -26 -45 -40 -142 -121
-210 -179 -228 -195 -6 -6 -72 -62 -146 -125 -74 -63 -137 -117 -140 -120 -3
-3 -50 -43 -105 -90 -55 -47 -105 -89 -111 -95 -6 -5 -36 -31 -65 -56 -30 -26
-93 -80 -140 -120 -47 -41 -112 -96 -144 -124 -95 -80 -147 -126 -160 -138 -7
-7 -32 -28 -56 -47 -24 -19 -56 -46 -71 -60 -24 -22 -60 -53 -146 -125 -13
-11 -34 -29 -47 -40 -13 -11 -47 -40 -75 -65 -29 -25 -58 -49 -64 -55 -6 -5
-40 -35 -76 -65 -72 -61 -67 -57 -142 -122 -47 -40 -106 -91 -162 -138 -9 -8
-27 -24 -39 -35 -13 -11 -52 -45 -87 -75 -36 -30 -70 -59 -76 -65 -7 -5 -31
-26 -54 -45 -23 -19 -67 -59 -99 -87 -31 -29 -59 -53 -63 -53 -4 0 -17 -10
-30 -22 -13 -13 -50 -45 -82 -73 -32 -27 -69 -59 -81 -70 -12 -11 -42 -36 -66
-57 -24 -20 -55 -46 -69 -58 -14 -12 -45 -38 -69 -58 -24 -21 -59 -50 -77 -67
-18 -16 -52 -46 -75 -65 -23 -19 -47 -40 -53 -45 -6 -6 -56 -48 -111 -95 -55
-47 -102 -87 -105 -90 -4 -5 -165 -141 -225 -192 -45 -38 -72 -61 -107 -94
-21 -19 -38 -32 -38 -29 0 3 -10 -5 -22 -18 -19 -20 -226 -200 -326 -283 -13
-10 -36 -29 -50 -42 -15 -13 -44 -37 -65 -55 -21 -18 -49 -41 -61 -52 -12 -11
-49 -42 -81 -70 -33 -27 -67 -58 -77 -67 -10 -10 -22 -18 -28 -18 -5 0 -13 -6
-17 -14 -4 -7 -46 -46 -93 -86 -47 -40 -107 -92 -135 -115 -27 -24 -60 -51
-72 -62 -11 -10 -38 -32 -60 -50 -21 -17 -53 -45 -71 -61 -18 -16 -52 -46 -75
-65 -49 -41 -72 -61 -151 -130 -33 -29 -69 -59 -80 -67 -12 -8 -25 -19 -31
-25 -5 -6 -41 -38 -80 -71 -38 -32 -72 -61 -75 -64 -3 -3 -34 -30 -70 -60 -36
-30 -67 -57 -70 -60 -4 -4 -89 -77 -158 -135 -13 -11 -34 -29 -46 -40 -12 -11
-46 -40 -76 -65 -30 -25 -61 -53 -69 -62 -9 -10 -19 -18 -22 -18 -4 0 -20 -12
-36 -28 -15 -15 -47 -43 -71 -62 -24 -19 -56 -46 -71 -60 -15 -14 -54 -47 -86
-75 -33 -27 -70 -60 -83 -72 -12 -13 -26 -23 -29 -23 -3 0 -19 -14 -35 -30
-15 -16 -32 -30 -36 -30 -4 0 -14 -9 -22 -20 -8 -11 -20 -20 -28 -20 -7 0 -10
-4 -7 -10 3 -5 2 -10 -3 -10 -4 0 -33 -21 -63 -46 -128 -110 -164 -140 -185
-159 -12 -11 -43 -38 -70 -60 -26 -22 -67 -58 -92 -80 -25 -22 -54 -46 -64
-54 -11 -7 -32 -25 -47 -40 -16 -14 -50 -44 -76 -66 -27 -22 -59 -50 -72 -63
-13 -13 -23 -20 -23 -17 0 3 -13 -8 -30 -25 -16 -16 -34 -30 -40 -30 -5 0 -10
-4 -10 -10 0 -5 -7 -10 -15 -10 -8 0 -15 -4 -15 -10 0 -5 -6 -10 -12 -10 -7 0
-24 -6 -38 -13 -67 -35 -228 -48 -305 -25 -16 5 -39 11 -50 13 -11 3 -21 9
-23 15 -2 6 -7 8 -12 5 -12 -8 -108 60 -154 109 -23 24 -79 85 -126 136 -47
51 -96 105 -110 120 -77 84 -123 135 -195 215 -44 48 -100 110 -125 136 -25
26 -74 80 -110 120 -36 39 -76 84 -90 99 -14 15 -59 65 -101 111 -43 46 -90
98 -105 115 -16 17 -63 68 -104 114 -41 45 -88 96 -103 113 -15 16 -62 68
-105 115 -42 47 -98 107 -123 134 -26 26 -45 48 -43 48 2 0 -29 35 -69 77
-118 126 -127 136 -127 145 0 5 -4 6 -10 3 -5 -3 -10 -2 -10 4 0 5 -15 25 -32
43 -18 19 -71 77 -118 128 -102 112 -173 190 -220 240 -19 21 -52 57 -74 81
-21 24 -77 86 -125 138 -47 52 -106 117 -131 144 -25 28 -61 67 -80 88 -19 21
-71 77 -115 125 -44 48 -96 105 -116 126 -20 21 -56 62 -80 90 -24 28 -59 65
-78 82 -19 17 -43 41 -54 54 -12 12 -27 22 -34 22 -7 0 -13 4 -13 9 0 5 -21
23 -47 39 -107 69 -246 124 -343 137 -14 2 -36 7 -50 10 -29 7 -189 7 -240 1
-86 -11 -187 -41 -278 -82 -54 -25 -155 -86 -177 -107 -7 -7 -27 -23 -45 -37
-29 -22 -99 -101 -152 -171 -10 -13 -32 -52 -50 -88 -18 -36 -35 -68 -38 -71
-5 -5 -43 -120 -42 -130 0 -3 -4 -15 -9 -27 -20 -53 -28 -237 -15 -339 7 -50
32 -153 46 -189 19 -50 95 -195 102 -195 5 0 8 -5 8 -11 0 -11 60 -88 105
-135 29 -31 109 -118 195 -213 83 -92 88 -97 210 -231 47 -51 96 -105 110
-120 27 -30 180 -197 220 -240 14 -15 61 -67 105 -116 81 -89 116 -127 202
-220 27 -29 82 -89 123 -134 41 -46 86 -95 100 -110 22 -24 152 -166 220 -240
14 -15 57 -63 95 -105 39 -43 95 -104 125 -136 30 -32 76 -82 102 -111 26 -29
69 -76 95 -104 26 -29 77 -84 113 -124 36 -40 76 -84 90 -99 14 -15 57 -62 95
-105 39 -42 94 -102 123 -132 28 -30 52 -56 52 -58 0 -2 15 -19 33 -38 96
-101 167 -181 167 -189 0 -5 7 -9 15 -9 8 0 15 -5 15 -11 0 -6 20 -32 45 -58
50 -52 86 -91 200 -216 44 -48 94 -103 110 -121 17 -18 55 -60 85 -94 30 -34
78 -86 106 -115 28 -30 80 -86 115 -125 35 -39 82 -91 104 -114 22 -24 73 -80
114 -125 182 -201 273 -293 325 -328 23 -15 43 -31 46 -34 3 -3 21 -14 40 -24
19 -10 37 -21 40 -25 3 -3 32 -17 65 -29 33 -13 69 -27 80 -31 19 -8 72 -22
140 -37 38 -8 312 -8 345 0 14 4 48 12 75 18 28 6 55 14 60 18 6 3 12 6 15 6
5 1 38 15 113 48 15 6 27 15 27 19 0 5 5 8 12 8 12 0 120 72 148 100 9 8 38
33 65 55 26 22 63 54 81 71 18 17 40 34 49 37 8 4 15 11 15 17 0 5 4 10 10 10
5 0 22 13 37 28 16 16 50 45 76 65 27 21 45 37 41 37 -4 0 15 17 41 37 27 20
56 44 65 52 9 9 37 34 64 56 26 22 61 52 77 67 17 15 48 42 70 60 23 18 51 42
63 53 13 11 46 40 76 65 29 25 62 54 75 65 12 11 43 38 70 60 27 22 54 45 60
52 6 6 41 35 76 64 73 61 108 91 155 134 18 17 47 41 64 55 18 14 47 39 66 55
18 17 44 39 57 50 52 45 141 121 151 130 6 6 38 32 71 60 33 27 62 52 65 55 7
7 71 62 145 125 32 28 67 58 77 68 10 9 20 17 23 17 3 0 18 12 34 28 15 15 50
46 77 68 82 69 198 168 212 181 7 7 18 13 23 13 6 0 7 5 4 10 -3 5 -1 10 4 10
6 0 27 16 47 35 19 19 38 35 41 35 2 0 19 13 36 29 18 16 57 50 87 76 30 26
69 59 85 74 17 14 57 48 90 76 33 27 69 58 79 67 11 10 24 18 28 18 5 0 7 4 3
9 -3 5 3 12 12 15 10 4 36 23 59 44 45 41 71 63 159 137 32 28 66 57 75 65 16
15 100 87 169 145 20 17 42 35 49 42 7 7 34 29 60 50 26 21 52 43 57 49 8 10
70 63 184 159 13 11 30 26 38 34 8 7 33 29 56 48 68 56 160 136 190 166 16 15
32 27 35 27 4 0 28 20 53 43 25 23 70 62 99 87 30 25 64 54 76 65 12 11 41 36
64 55 42 34 60 50 165 141 28 24 77 67 110 94 32 28 69 59 81 70 12 11 39 34
60 50 20 17 51 44 69 60 18 17 54 48 81 70 26 22 58 49 70 60 12 11 40 34 61
52 21 17 54 45 73 63 19 17 52 45 72 62 20 16 46 37 56 46 11 10 41 35 67 57
26 22 60 51 75 65 14 14 46 41 71 61 24 20 56 47 70 60 14 13 46 41 72 62 26
21 52 43 59 50 7 7 45 39 83 71 39 33 75 65 80 71 6 6 24 21 40 34 17 12 59
48 94 79 35 32 71 61 80 66 9 5 23 17 31 26 12 14 91 83 184 160 10 8 31 26
46 40 15 14 39 34 51 44 24 20 144 122 165 141 6 6 37 33 70 60 140 119 210
180 225 194 9 9 27 25 40 36 47 39 224 190 235 200 6 5 35 30 64 55 29 25 63
54 76 65 12 11 40 34 61 52 21 17 54 45 73 63 19 17 52 45 72 62 20 16 47 39
60 50 13 10 48 40 77 66 30 26 63 55 73 65 10 9 20 17 23 17 3 0 16 10 28 23
12 13 36 34 53 47 17 14 64 54 105 89 41 35 91 79 113 97 21 19 43 34 48 34 5
0 6 5 3 10 -3 6 -2 10 3 10 5 0 20 9 33 21 13 11 44 37 68 57 24 21 59 51 77
67 17 17 43 39 57 50 30 24 111 94 181 155 28 24 59 51 70 60 10 8 55 47 100
85 45 39 108 93 140 120 32 28 66 57 76 65 9 8 41 35 70 60 126 108 193 172
240 230 19 24 42 51 51 59 23 24 119 159 119 169 0 5 8 17 18 28 9 10 27 37
39 59 45 85 66 120 75 133 6 6 7 12 2 12 -5 0 -4 4 1 8 9 6 34 52 40 72 1 3
12 28 24 55 13 28 25 59 27 69 2 11 9 23 15 26 6 4 10 10 9 14 -1 4 12 48 29
99 18 52 34 104 37 118 8 36 12 53 15 59 1 3 3 10 4 15 2 6 4 12 5 15 6 15 20
91 26 140 3 25 8 70 13 100 9 69 6 1009 -3 1110 -4 41 -10 91 -12 110 -2 19
-5 54 -7 77 -1 24 -4 43 -7 43 -5 0 -10 38 -13 88 0 6 -3 12 -6 12 -3 0 -7 15
-8 33 -1 19 -16 90 -33 158 -17 68 -33 132 -35 141 -2 9 -9 26 -15 37 -6 12
-9 21 -6 21 2 0 -5 24 -16 53 -10 28 -25 70 -32 92 -8 22 -19 54 -26 70 -8 17
-14 32 -15 35 -25 75 -123 272 -195 395 -29 50 -58 100 -64 112 -6 13 -14 23
-18 23 -5 0 -8 5 -8 11 0 6 -13 28 -30 49 -16 21 -30 41 -30 44 0 4 -13 21
-30 39 -16 18 -30 35 -30 39 0 4 -6 13 -12 20 -7 7 -31 36 -53 63 -22 28 -44
55 -50 61 -5 7 -26 31 -45 55 -55 68 -350 357 -350 343 0 -2 -8 4 -18 14 -28
28 -151 123 -214 166 -32 22 -58 44 -58 49 0 6 -3 8 -6 5 -4 -5 -151 80 -189
109 -6 4 -37 22 -70 38 -33 17 -61 33 -63 38 -2 4 -7 7 -12 7 -4 0 -41 15 -82
34 -118 55 -172 79 -183 82 -5 1 -55 19 -110 39 -55 21 -115 41 -132 46 -18 5
-48 13 -65 18 -94 27 -244 61 -274 64 -19 1 -34 4 -34 7 0 3 -15 7 -33 8 -18
1 -44 5 -57 8 -48 10 -65 13 -130 19 -36 4 -85 9 -110 12 -38 4 -14348 11
-14353 7z"/>
</g>
</svg>
